<svg xmlns="http://www.w3.org/2000/svg" viewBox="0 0 77 130" width="77" height="130" shape-rendering="geometricPrecision">
<path fill="#bc880d" fill-rule="evenodd" d="M54.20,7.40 48.80,11.80 43.40,22.20 7.60,71.40 9.80,74.20 33.60,74.20 36.40,76.00 28.40,103.20 20.40,119.00 21.40,122.40 69.00,61.20 67.20,59.00 43.80,59.80 41.20,57.80 48.20,26.80 55.00,9.80Z"/>
<path fill="#58420c" fill-rule="evenodd" d="M55.40,5.40 52.00,5.60 48.20,9.80 42.40,21.40 4.60,72.60 8.00,76.00 31.60,75.80 34.80,77.60 19.40,117.40 20.20,124.40 23.40,123.80 29.60,113.20 71.40,61.40 69.60,57.40 46.60,58.40 43.60,56.40 53.40,15.00 56.40,10.60Z M54.00,7.20 55.20,9.80 48.40,26.80 41.40,57.80 43.80,59.60 67.20,58.80 69.20,61.20 21.40,122.60 20.20,119.00 28.20,103.20 36.20,76.00 33.60,74.40 9.80,74.40 7.40,71.40 43.20,22.20 48.60,11.80Z"/>
</svg>