<svg xmlns="http://www.w3.org/2000/svg" viewBox="0 0 108 115" width="108" height="115" shape-rendering="geometricPrecision">
<path fill="#bf9e83" fill-rule="evenodd" d="M10.60,70.40 9.40,72.00 9.40,85.00 11.20,86.80 21.20,86.20 24.40,87.60 25.80,91.40 26.20,99.60 25.60,103.00 26.40,104.80 28.40,105.40 33.20,104.60 39.00,105.20 41.20,104.40 42.00,101.20 41.00,71.80 38.80,70.40Z M45.60,43.00 44.40,45.40 44.80,67.40 46.80,69.00 63.60,68.20 65.60,69.60 65.60,103.20 67.80,104.80 71.60,103.60 80.40,104.60 81.60,102.80 81.60,89.80 86.00,87.80 95.20,88.20 97.60,86.20 98.20,70.60 95.20,69.00 73.00,70.40 68.20,69.20 65.40,64.40 64.20,43.80Z M66.40,10.40 65.40,12.80 66.20,16.20 66.40,40.60 67.60,41.20 96.40,41.20 97.40,39.60 96.20,35.20 97.20,27.60 95.20,26.00 86.80,26.60 84.20,25.00 83.40,22.40 84.20,12.40 83.40,10.80 81.00,10.00 67.60,9.80Z M40.40,9.80 38.40,9.40 34.80,10.60 26.80,10.60 26.00,11.80 26.00,14.00 27.40,17.00 26.40,21.60 24.00,24.40 21.60,25.40 11.60,25.60 9.80,26.80 9.60,39.40 10.80,41.00 13.00,41.40 33.00,40.00 39.20,40.80 41.20,39.80 41.20,16.20 41.80,12.00Z"/>
<path fill="#55483d" fill-rule="evenodd" d="M25.60,8.80 23.40,22.00 8.80,24.80 8.20,41.20 41.60,42.80 42.60,67.80 9.40,69.00 8.40,87.80 23.40,89.80 25.20,106.40 43.00,106.40 43.60,71.00 63.20,70.20 64.20,105.20 83.20,105.40 83.40,91.40 100.20,87.60 100.60,69.60 97.20,66.60 70.20,68.20 66.60,44.60 98.80,42.40 98.60,25.80 85.60,23.60 84.20,9.00 66.40,7.80 64.00,40.00 45.40,41.20 43.20,8.80Z M10.40,70.40 12.80,69.80 19.00,70.60 38.80,70.20 41.20,71.80 42.20,103.20 41.20,104.60 39.00,105.40 33.20,104.80 28.80,105.60 26.20,104.80 25.40,103.00 26.00,99.60 25.60,91.40 24.20,87.60 21.20,86.40 11.20,87.00 9.20,85.00 9.20,72.00Z M45.60,42.80 61.60,42.60 64.40,43.80 65.60,64.40 68.20,69.00 73.00,70.20 95.20,68.80 98.40,70.60 97.80,86.20 95.20,88.40 86.00,88.00 81.80,89.80 81.80,102.80 80.40,104.80 71.60,103.80 67.80,105.00 65.40,103.20 65.40,69.60 63.60,68.40 46.80,69.20 44.60,67.40 44.20,45.40Z M66.40,10.20 67.60,9.60 81.00,9.80 84.00,11.40 84.40,14.40 83.60,16.80 83.60,22.40 84.40,25.00 86.80,26.40 95.20,25.80 97.40,27.60 96.40,35.20 97.60,39.60 96.40,41.40 67.60,41.40 66.20,40.60 66.00,16.20 65.20,12.80Z M40.40,9.60 42.00,12.00 41.40,16.20 41.40,39.80 39.20,41.00 33.00,40.20 10.80,41.20 9.40,39.40 9.60,26.80 11.60,25.40 21.60,25.20 24.20,24.20 27.00,19.20 27.20,17.00 25.80,14.00 25.80,11.80 26.60,10.60 28.60,10.00 34.80,10.40 38.40,9.20Z"/>
</svg>