<svg xmlns="http://www.w3.org/2000/svg" viewBox="0 0 350 441" width="350" height="441" shape-rendering="geometricPrecision">
<path fill="#bda089" fill-rule="evenodd" d="M337.40,294.80 330.40,306.20 309.40,373.40 282.00,418.40 266.00,429.20 249.00,430.40 235.60,420.20 229.40,400.60 218.60,407.40 200.00,431.40 184.20,440.80 200.20,432.20 221.80,406.60 224.60,411.00 195.60,440.80 222.80,413.20 227.60,414.60 236.80,430.20 248.60,437.20 264.20,436.20 284.00,425.20 316.20,372.20 336.40,314.40Z M333.80,305.60 335.60,313.80 329.40,327.20 321.40,357.20 312.40,379.20 292.40,414.20 279.40,428.20 264.00,435.20 249.60,436.40 239.80,432.00 231.40,420.80 228.40,413.40 230.00,410.40 240.40,427.20 253.20,432.60 272.60,427.20 287.40,413.40 313.20,367.00 326.20,331.00 330.80,307.80Z M246.20,252.60 246.20,251.00 245.00,249.80 235.20,245.40 231.60,241.00 230.20,238.00 228.20,236.40 226.80,236.60 225.60,237.80 222.60,243.20 220.20,245.60 213.20,247.20 206.00,246.60 204.80,247.60 206.60,251.60 213.60,257.00 217.40,258.00 225.00,257.60 231.80,260.00 241.40,257.00 245.00,254.40Z M245.80,215.80 245.00,213.80 244.20,213.40 241.60,213.40 239.20,214.40 234.60,214.80 221.20,214.00 219.60,214.40 218.60,215.40 218.40,216.20 218.60,217.20 219.60,218.20 223.40,219.80 228.20,220.00 231.40,220.80 235.20,220.80 239.00,220.40 243.80,218.40 245.40,217.20Z M245.00,215.20 244.80,216.80 242.80,218.20 238.80,219.40 231.60,219.80 228.60,218.80 223.80,219.00 221.40,218.40 219.40,217.00 219.40,215.80 221.00,214.60 223.40,214.60 228.60,215.60 233.20,215.60 235.20,216.00 239.00,215.40 241.40,214.20 243.40,214.00 244.40,214.40Z M43.20,170.40 41.80,169.80 39.60,169.80 37.80,170.60 35.80,172.80 34.00,175.60 33.40,177.00 33.40,179.80 34.60,181.40 35.60,182.00 37.20,182.40 40.00,182.20 41.20,181.00 42.40,179.00 45.00,177.00 45.60,175.40 45.60,174.20 45.20,172.60Z M207.80,143.40 206.60,143.80 205.60,144.80 204.60,147.60 204.60,155.80 205.60,158.20 206.80,159.40 208.40,159.60 209.60,159.20 210.80,158.00 211.60,156.40 211.80,155.40 211.60,151.00 212.00,150.00 212.00,147.80 211.00,144.80 210.00,143.80Z M266.20,134.60 262.80,135.20 258.60,138.80 257.40,141.60 258.60,149.00 264.20,153.00 266.00,156.00 265.60,170.40 262.00,179.20 257.00,183.80 257.00,185.80 258.40,187.00 262.20,186.20 267.20,181.00 271.00,172.00 272.00,167.00 272.00,147.00 269.20,138.60Z M269.80,149.60 271.20,151.00 271.60,154.60 271.40,165.20 270.20,172.00 268.20,178.00 267.00,180.00 262.20,185.40 260.60,186.20 259.00,186.20 257.80,185.00 258.00,183.60 262.20,180.20 265.40,174.20 266.60,168.60 267.20,153.60Z M265.20,135.20 267.00,136.20 268.40,138.40 269.40,141.80 269.40,144.40 270.20,148.80 269.40,149.40 268.20,148.60 267.20,149.00 266.40,148.40 266.20,144.80 265.40,143.40 264.80,140.60 264.00,140.20 263.20,140.80 262.60,142.40 261.60,143.60 264.00,149.00 263.60,149.80 262.40,150.20 259.80,149.20 258.60,147.00 259.00,144.00 258.40,142.80 258.40,140.40 263.60,135.60Z M264.80,30.60 201.40,24.20 155.20,42.80 122.60,76.60 102.60,123.60 96.40,181.60 110.20,193.60 86.60,190.60 63.20,161.60 49.20,164.60 63.40,179.80 53.40,207.80 38.40,203.80 53.20,193.20 53.20,177.40 32.80,192.00 41.80,219.00 58.20,209.40 102.80,234.60 82.20,300.20 38.80,323.40 19.40,358.60 22.60,380.40 35.20,385.00 59.60,357.60 78.00,357.60 72.80,406.00 83.60,421.00 109.20,414.00 148.60,366.20 166.40,374.60 156.80,413.00 171.40,431.40 196.00,421.40 232.80,371.00 246.40,380.00 242.60,411.40 254.60,420.80 296.40,375.00 331.20,246.80 349.80,238.00 349.80,200.20 332.20,201.20 334.20,138.20 320.80,85.60Z M296.20,367.40 296.20,372.00 293.60,375.60 292.40,381.00 289.60,384.40 288.40,388.20 285.60,391.20 284.40,394.40 268.00,413.40 264.20,416.80 261.20,417.20 261.20,415.00 265.60,412.40 272.60,405.20 274.20,402.00 276.60,400.40 277.60,397.40 280.40,395.40 281.60,391.20 284.60,388.20 285.60,385.00 288.40,382.20 289.60,377.00 291.80,375.20 294.00,368.60Z M49.40,367.80 48.20,372.00 45.60,374.80 43.60,379.20 41.20,381.20 37.00,383.20 30.80,383.40 24.40,380.80 22.80,379.00 20.60,373.20 21.40,368.40 22.20,367.80 23.20,368.60 23.60,370.40 25.40,373.00 25.80,375.20 27.60,377.40 31.40,380.40 35.20,381.60 44.60,372.60 46.40,368.20 48.40,367.20Z M100.40,415.00 112.60,403.40 113.60,394.80 129.60,374.20 139.40,365.60 151.20,360.80 158.80,361.60 171.00,373.20 171.00,388.00 163.40,400.40 162.60,419.20 166.40,424.00 187.20,423.80 205.20,404.20 200.40,415.00 185.80,428.00 165.00,428.40 159.00,420.60 159.20,402.80 166.60,391.40 169.20,378.40 160.20,365.60 148.80,364.60 138.60,369.20 121.60,388.00 112.60,409.20 103.40,416.40Z M64.60,350.00 68.80,349.20 73.60,349.40 75.80,351.40 80.80,353.60 82.60,356.20 85.60,358.80 87.40,364.40 87.60,371.20 86.20,377.80 85.20,379.20 84.00,379.60 83.20,379.00 83.40,376.20 85.20,370.60 83.20,362.20 81.20,358.80 74.00,353.40 64.20,352.60 63.80,351.80Z M293.20,343.40 294.40,344.60 294.60,345.80 294.40,348.20 293.40,350.60 290.60,353.40 289.20,357.20 287.60,359.00 285.40,363.00 280.20,367.80 278.20,367.80 277.60,367.00 278.20,364.60 281.00,362.00 282.60,359.00 285.80,355.20 287.20,351.20 287.40,347.00 288.40,344.60 290.40,343.20 291.80,343.00Z M67.60,315.80 67.40,317.40 66.00,318.40 52.20,319.20 48.80,322.00 44.60,323.40 42.40,326.40 39.40,328.20 38.20,330.60 35.20,332.20 34.00,336.20 31.00,338.60 30.20,338.00 31.40,332.80 34.20,330.40 35.40,328.00 46.60,318.80 53.20,315.40 55.60,314.80 64.20,314.40Z M317.20,289.60 316.80,294.20 314.60,298.40 314.20,300.20 311.60,303.60 310.00,306.80 300.60,317.40 298.60,318.20 296.00,317.80 295.20,317.00 295.40,315.20 298.20,311.60 301.20,309.20 302.40,307.00 305.20,304.40 306.60,301.80 309.00,299.60 310.40,296.40 313.20,294.00 314.60,290.00 315.80,289.00Z M233.20,278.00 234.60,279.60 235.40,281.20 236.40,282.40 236.80,283.80 236.80,284.60 236.40,285.80 235.40,286.80 234.20,287.40 231.00,288.20 228.80,288.20 228.60,288.40 228.20,288.20 228.00,288.40 227.80,288.20 226.80,288.20 225.80,287.60 225.20,287.00 224.80,285.40 224.80,283.80 225.40,282.00 226.60,280.60 227.20,280.40 229.80,278.20 231.60,277.60Z M70.40,216.20 71.40,215.40 73.60,216.00 74.40,217.00 74.80,219.80 76.00,221.20 78.00,222.40 79.60,224.40 80.80,225.00 88.60,225.00 91.80,225.80 94.80,225.00 97.00,225.20 98.40,226.20 98.60,227.20 97.20,228.20 92.80,228.40 89.20,229.60 86.60,229.60 84.60,228.80 80.60,229.00 79.40,228.60 75.80,226.00 71.60,221.60 70.40,219.00Z M269.00,204.80 270.00,205.60 270.60,208.80 270.20,228.40 268.20,231.80 266.40,240.20 266.40,243.00 265.60,244.20 263.40,245.20 262.60,244.60 263.40,237.60 266.00,231.20 267.20,206.00Z M184.40,203.80 188.00,202.20 198.60,205.80 212.00,207.60 258.80,204.00 264.20,204.80 265.80,207.60 265.60,220.60 262.40,238.80 253.40,257.00 241.40,266.40 228.40,269.00 216.60,266.20 207.60,261.40 197.60,252.20 193.60,246.00 186.20,222.60Z M185.60,196.40 187.00,195.80 189.00,196.60 191.40,198.40 195.00,199.20 201.40,199.00 203.20,199.80 204.60,201.20 210.60,203.20 211.20,204.20 210.00,205.20 207.20,205.20 203.80,204.40 198.40,204.40 194.40,203.40 191.40,202.20 189.80,200.60 186.80,199.20 185.60,198.00Z M266.20,196.00 265.20,198.20 260.80,199.60 259.40,202.20 256.20,203.20 251.20,203.40 248.00,204.40 216.80,204.60 215.80,203.80 216.60,202.80 221.80,201.80 250.40,201.60 252.20,200.60 254.40,198.00 259.20,197.20 263.60,195.40Z M77.00,184.00 77.80,183.40 79.00,184.20 81.40,187.40 89.00,194.40 96.20,195.60 103.40,198.60 105.20,198.40 109.40,196.20 110.40,196.40 110.80,197.20 109.40,198.80 107.60,199.40 104.00,202.20 102.80,202.20 98.40,199.60 91.00,198.40 89.40,197.20 88.40,195.00 84.40,193.80 83.60,192.20 81.60,191.00 80.00,188.60 77.40,186.20Z M50.20,164.60 52.00,163.20 57.60,163.20 60.80,162.40 63.20,162.40 64.80,163.40 68.60,167.60 70.00,171.60 69.20,172.20 66.80,171.20 65.20,170.00 64.20,168.20 62.20,166.80 59.40,166.40 58.60,166.60 58.20,168.20 61.80,171.00 62.40,172.60 61.60,173.20 58.60,172.80 56.60,171.60 55.20,170.00 51.80,168.20 50.40,166.60Z M279.60,137.20 281.40,137.80 282.40,139.20 283.40,147.00 283.40,154.20 284.20,156.80 283.20,163.00 282.80,173.40 282.00,176.60 280.60,177.80 279.20,176.80 279.40,169.40 281.40,161.40 281.40,157.60 278.80,137.80Z M164.00,127.40 172.40,127.40 180.80,132.40 180.20,134.80 177.00,136.80 176.60,179.00 175.60,180.60 174.00,179.20 173.40,175.20 172.60,139.60 175.20,136.20 173.40,131.60 164.80,130.40 163.20,128.80Z M106.20,120.60 107.20,122.00 106.20,132.20 103.80,135.60 101.60,153.00 102.00,165.40 101.40,170.60 102.00,176.20 99.60,178.40 98.60,177.60 99.40,145.80 100.40,139.20 102.60,134.80 104.40,122.60Z M157.60,121.40 160.20,118.80 161.40,114.00 165.40,112.40 167.40,109.60 169.00,109.40 171.60,112.20 175.00,113.40 180.00,117.20 182.80,120.20 187.60,121.40 189.60,124.40 195.60,125.40 197.80,128.20 203.20,129.40 204.60,131.80 203.40,133.20 199.00,132.40 196.20,129.60 190.60,128.20 188.80,125.40 182.80,124.20 180.40,121.60 176.20,120.20 172.60,115.40 168.60,113.00 166.60,113.40 162.40,119.00 160.60,125.00 158.00,124.00Z M275.40,105.20 276.40,108.60 276.20,111.40 274.40,113.60 273.20,116.20 264.20,125.00 260.60,126.40 258.80,128.00 256.60,128.80 253.60,128.80 252.80,128.40 252.40,127.40 253.40,126.20 256.40,125.00 259.40,125.00 261.40,121.80 263.60,121.20 265.20,119.60 265.40,118.60 269.20,115.60 269.60,113.80 272.60,111.40 272.80,108.40 274.00,105.80 275.00,105.00Z M286.20,104.80 285.20,113.80 272.40,128.60 278.60,143.60 278.20,174.00 273.40,185.00 265.00,193.60 253.40,195.80 242.40,188.00 234.80,168.80 235.80,144.40 226.80,145.80 224.00,141.60 219.00,144.80 218.00,174.60 213.60,185.40 199.40,197.40 192.60,197.40 186.20,193.00 177.60,176.00 177.60,146.40 181.60,132.60 164.20,124.60 167.00,115.40 198.20,133.20 213.80,137.40 221.00,134.40 225.40,139.60 259.20,129.00 273.40,117.20 279.00,105.20Z M278.20,52.20 281.20,53.60 282.60,54.80 284.20,56.80 285.20,58.80 285.20,60.20 283.20,62.20 281.80,62.80 279.40,64.40 278.60,64.40 276.40,65.40 274.60,65.40 273.60,64.60 273.60,63.60 274.40,61.60 274.40,60.40 274.60,60.20 274.40,59.80 274.40,57.40 274.20,57.20 274.40,54.60 276.00,52.20 276.40,52.00Z M154.20,46.40 154.60,47.20 153.60,48.80 148.80,51.80 139.20,61.40 133.80,69.20 131.60,70.80 130.40,74.60 127.20,76.60 126.40,80.20 123.60,82.40 122.20,87.00 119.00,88.40 118.60,85.80 119.40,83.60 122.00,81.00 123.60,76.80 125.40,75.40 127.40,71.40 145.80,51.60 148.20,50.40 150.60,47.40Z M272.00,14.60 215.00,4.00 151.60,23.60 102.80,78.60 80.80,153.60 54.60,145.60 22.60,169.00 26.80,223.20 83.20,249.40 68.40,292.00 15.40,324.40 3.80,376.60 24.80,400.20 56.80,396.00 83.80,440.80 137.20,409.60 154.20,440.60 139.60,408.80 104.60,436.40 79.00,437.40 60.00,395.00 67.60,423.20 89.60,435.00 147.60,399.60 164.60,440.60 149.00,398.80 85.40,433.40 66.20,419.00 64.20,384.80 33.60,395.20 12.40,383.40 18.60,330.60 73.40,295.00 89.40,245.20 30.40,220.20 26.80,172.60 61.40,150.20 85.00,173.00 114.40,71.20 194.80,12.80 281.80,26.60 340.60,105.00 322.00,57.60Z M58.00,222.40 73.00,237.20 86.40,241.40 88.60,245.60 81.40,278.40 73.20,294.00 64.60,301.40 43.60,305.60 28.80,316.80 17.80,330.40 10.60,347.20 8.40,374.80 19.40,392.20 35.40,396.40 64.40,386.60 63.00,391.20 56.20,391.20 46.00,398.40 30.00,400.40 17.20,395.40 7.60,385.20 4.60,356.20 12.40,331.60 23.40,316.00 47.00,299.60 65.00,296.00 77.20,279.40 84.20,247.20 81.80,242.40 68.60,238.20 54.60,226.60Z M344.00,96.60 339.60,103.60 317.40,58.80 269.00,18.40 228.20,8.40 181.60,15.60 143.40,37.40 112.60,72.20 94.60,110.60 84.60,172.20 79.20,159.40 61.20,149.40 30.60,164.60 21.40,201.80 40.60,230.00 22.40,215.00 19.00,181.60 27.40,161.60 56.60,146.00 80.40,156.60 93.40,101.60 111.60,65.80 142.00,32.40 177.60,12.40 236.40,5.40 278.40,18.60 310.60,44.60Z"/>
<path fill="#e5caad" fill-rule="evenodd" d="M230.40,403.00 228.80,402.60 226.00,403.40 223.00,406.60 220.00,407.60 215.60,413.00 213.60,417.00 204.60,428.00 194.80,436.60 187.20,440.80 195.40,440.80 209.20,428.20 220.20,413.20 224.40,411.00 223.20,407.00 227.60,405.80 230.20,406.00Z M59.60,395.60 59.00,410.00 62.80,422.20 69.40,431.40 80.80,438.00 87.80,439.40 105.20,436.00 119.80,427.20 133.40,410.20 139.60,408.60 142.40,412.00 147.60,433.00 154.40,440.80 161.40,440.80 151.40,431.60 146.40,422.00 145.40,408.00 148.00,399.80 139.40,405.40 130.80,407.80 119.60,422.40 108.40,430.40 99.40,434.20 89.60,435.20 76.60,432.00 67.40,423.20 62.40,413.20 61.40,395.80Z M296.20,367.00 294.20,368.60 292.00,375.20 289.80,377.00 288.60,382.20 286.00,384.60 284.80,388.20 281.80,391.20 280.60,395.20 277.80,397.40 276.80,400.40 274.40,402.00 273.20,404.60 265.80,412.40 261.40,415.00 261.00,417.20 264.20,416.60 268.00,413.20 284.20,394.40 285.40,391.20 288.20,388.20 289.40,384.40 292.20,381.00 293.40,375.60 296.00,372.00Z M246.20,373.60 244.00,372.40 241.40,369.40 239.00,368.40 237.20,366.20 233.60,365.80 231.80,366.40 230.00,368.20 226.40,369.60 218.00,378.60 216.60,382.00 213.80,384.40 213.20,387.80 209.80,390.80 209.60,394.80 211.20,394.20 212.00,393.00 213.00,388.80 216.20,386.00 217.20,382.80 220.20,380.40 221.40,378.00 224.20,376.00 226.00,373.20 228.80,372.00 231.80,369.40 238.20,369.00 240.60,371.20 242.40,371.60 244.60,375.00 246.80,376.40Z M100.60,415.00 104.00,416.00 112.40,409.20 121.40,388.00 138.60,369.00 148.80,364.40 160.20,365.40 169.40,378.40 166.80,391.40 159.40,402.80 159.20,420.60 165.00,428.20 185.20,428.20 196.20,419.80 205.20,404.60 202.00,405.40 196.60,415.60 187.00,424.00 166.80,424.40 162.40,419.20 163.20,400.40 170.80,388.00 170.80,373.20 158.80,361.80 151.20,361.00 139.40,365.80 129.80,374.20 113.80,394.80 112.80,403.40Z M25.00,350.20 21.00,362.60 21.80,368.20 20.80,373.20 23.80,380.20 29.80,383.00 34.00,383.40 38.80,382.40 44.20,378.20 45.40,374.80 48.00,372.00 49.20,367.60 52.00,365.20 53.00,361.80 55.80,359.80 56.80,357.40 54.60,357.80 53.40,360.40 50.20,363.00 49.00,367.00 46.20,368.60 44.80,372.60 35.60,381.60 34.20,381.80 29.20,379.20 26.20,376.00 22.80,368.40 23.20,363.20 22.20,359.60 25.60,354.80Z M64.80,350.00 64.20,350.60 64.00,352.60 70.60,352.60 74.00,353.20 81.40,358.80 83.40,362.20 85.20,369.40 85.20,372.00 83.60,376.20 83.40,379.40 85.20,379.20 86.00,377.80 87.40,371.20 87.20,364.40 85.40,358.80 82.40,356.20 80.80,353.80 77.20,352.40 73.80,349.60 68.80,349.40Z M67.60,315.80 64.20,314.60 55.60,315.00 45.60,319.60 43.00,322.40 40.40,323.60 36.20,327.40 33.80,331.00 31.60,332.80 30.60,337.20 27.60,341.60 27.60,346.20 28.60,346.20 29.40,345.20 30.40,339.40 33.80,336.20 35.00,332.20 38.20,330.40 39.20,328.20 42.40,326.20 44.60,323.20 48.60,322.00 52.20,319.00 66.20,318.20Z M333.60,305.60 331.00,307.80 326.40,331.00 313.40,367.00 287.60,413.40 272.60,427.40 253.20,432.80 239.80,426.80 230.00,410.60 228.60,413.40 231.60,420.80 239.80,431.80 249.60,436.20 264.00,435.00 279.20,428.20 292.20,414.20 312.20,379.20 321.20,357.20 329.20,327.20 335.40,313.80Z M206.20,248.40 207.00,250.80 210.80,253.20 213.00,255.60 217.60,256.80 226.60,255.40 230.60,258.00 233.20,258.20 235.20,256.80 238.60,257.00 241.00,256.20 245.20,252.60 244.40,250.60 241.60,250.00 239.80,253.20 235.00,255.40 232.40,254.20 226.60,254.80 225.20,253.80 220.80,254.60 214.60,253.00 213.40,252.00 213.40,250.80 214.60,250.00 220.20,249.20 221.40,248.20 221.20,247.60 216.40,247.40 213.40,249.00 208.20,247.40 206.60,247.60Z M70.60,216.20 70.60,219.00 71.80,221.60 75.80,225.80 78.80,228.20 80.60,228.80 84.60,228.60 86.60,229.40 89.20,229.40 92.80,228.20 97.40,228.00 98.40,227.20 98.20,226.20 97.00,225.40 94.80,225.20 91.80,226.00 88.60,225.20 80.80,225.20 75.40,220.80 74.40,219.40 74.20,217.00 73.40,216.00 71.20,215.60Z M269.00,205.00 267.40,206.00 266.20,231.20 263.60,237.60 262.80,245.20 259.80,247.60 258.60,252.20 255.60,254.60 254.40,258.00 251.80,259.80 250.80,262.40 253.00,262.00 254.60,259.60 257.80,257.20 258.80,253.20 261.20,252.20 262.40,250.60 262.40,245.60 266.20,243.00 268.00,231.80 270.00,228.40 270.40,208.80Z M215.20,204.00 248.00,204.20 259.40,202.00 260.60,199.60 265.00,198.20 266.00,195.80 263.60,195.60 253.60,198.20 246.60,194.80 245.00,192.00 241.20,189.40 240.00,186.00 237.80,184.80 237.80,187.80 241.40,190.60 242.40,193.20 246.00,195.00 247.80,197.60 253.00,198.80 252.40,200.60 250.40,201.80 221.80,202.00Z M73.60,178.60 74.60,182.20 77.20,184.00 78.20,187.00 83.80,192.20 84.40,193.60 88.20,195.00 90.40,198.00 98.40,199.40 102.80,202.00 104.00,202.00 109.40,198.60 114.80,193.40 114.20,188.40 113.20,187.40 111.40,187.20 111.60,195.00 105.20,198.60 102.40,198.60 96.20,195.80 89.80,194.80 85.60,191.80 77.40,183.20 76.00,180.00 74.60,178.60Z M50.60,164.20 50.40,166.00 51.80,168.00 54.60,169.40 57.60,172.20 60.00,173.00 62.20,173.20 62.40,172.60 61.00,170.40 58.20,168.60 58.00,167.20 59.40,166.20 63.20,167.20 65.80,170.40 69.60,172.40 70.40,176.00 71.60,177.00 72.20,176.80 72.20,174.20 69.80,171.20 69.00,168.60 64.00,163.00 60.80,162.60 57.60,163.40 53.40,163.20Z M265.20,135.40 260.00,138.80 258.40,141.80 259.80,149.00 264.40,149.80 261.40,144.20 264.00,140.00 266.40,144.80 266.60,149.00 268.20,148.60 269.20,149.40 267.40,153.60 266.80,168.60 265.60,174.20 262.40,180.20 258.20,183.60 258.80,186.00 262.20,185.20 267.20,179.40 270.00,172.00 271.20,165.20 271.20,151.80 270.00,149.60 269.00,140.80 267.20,136.60Z M164.00,127.60 163.40,128.80 164.80,130.20 173.20,131.40 175.20,136.00 172.80,139.60 173.60,175.20 174.20,179.20 176.00,180.40 176.80,136.80 179.80,135.00 180.80,132.80 180.20,131.60 173.20,127.80Z M286.20,116.60 284.00,117.80 282.40,121.60 280.00,122.80 273.60,128.80 276.80,136.00 278.80,137.60 281.60,157.60 281.60,161.40 279.40,171.60 279.40,176.80 280.60,177.60 281.80,176.60 282.60,173.40 283.20,161.00 284.20,157.80 283.20,154.20 282.20,139.20 278.80,136.60 278.40,128.20 282.00,125.40 283.00,122.40 286.20,120.00Z M157.80,121.40 158.20,124.00 160.80,124.80 161.80,119.60 165.80,114.00 168.60,112.80 172.60,115.20 176.20,120.00 180.40,121.40 183.60,124.40 188.80,125.20 190.80,128.20 195.80,129.20 199.00,132.20 204.40,132.60 206.80,134.20 213.00,135.80 215.20,135.40 216.00,134.20 215.20,133.40 204.80,132.60 203.20,129.60 197.60,128.20 195.20,125.40 189.20,124.40 187.60,121.60 182.60,120.20 169.00,109.60 161.60,114.00 160.40,118.80Z M275.40,105.40 275.00,105.20 274.20,105.80 273.00,108.40 272.80,111.40 269.80,113.80 269.40,115.60 267.60,117.40 266.60,117.60 263.80,121.20 261.60,121.80 259.60,125.00 256.40,125.20 254.60,125.80 253.00,126.80 252.60,127.40 252.80,128.40 256.60,128.60 258.20,128.20 261.40,125.80 264.20,124.80 272.20,117.20 276.20,110.80 276.20,108.60Z M114.20,98.20 112.20,99.80 111.20,106.20 107.80,111.60 107.00,119.20 104.60,122.60 102.80,134.80 100.00,142.60 98.60,170.40 99.60,178.80 97.80,182.40 100.40,185.60 104.80,184.40 109.40,185.40 108.60,182.40 105.00,182.40 99.80,178.40 101.80,176.20 101.40,153.00 103.60,135.60 106.00,132.20 107.20,119.40 110.40,115.40 110.60,108.00 113.40,105.00Z M267.80,35.40 268.80,37.40 273.00,38.40 275.60,41.40 289.20,50.60 305.40,67.40 306.40,70.60 308.80,72.60 309.80,77.40 313.60,79.00 313.80,83.00 316.80,85.20 318.20,91.60 321.20,93.40 322.00,101.40 324.00,103.40 324.40,98.20 321.20,92.60 320.20,87.60 317.20,84.40 316.20,80.60 313.00,78.00 312.00,73.80 294.00,51.80 278.40,39.60 274.20,38.40 272.00,35.80Z M184.80,31.60 177.60,31.80 173.60,35.00 168.80,35.60 166.00,38.40 155.80,44.00 154.00,46.40 150.60,47.60 140.80,56.60 127.60,71.40 119.60,83.60 118.80,88.60 122.00,87.00 123.20,82.80 126.20,80.20 127.00,76.60 130.00,75.00 131.40,70.80 148.80,51.60 153.20,49.20 155.00,46.40 159.00,45.20 160.60,42.60 172.20,37.40 174.00,34.80 184.20,33.20Z M293.80,28.80 236.40,5.60 193.80,7.20 153.80,23.80 103.80,78.80 81.40,155.80 56.60,146.20 27.60,161.60 23.60,216.80 36.60,229.80 59.60,227.80 84.60,249.80 68.60,293.20 33.80,307.60 12.60,331.60 4.40,372.00 15.60,394.00 33.00,400.40 64.20,389.80 19.40,392.40 9.60,350.20 29.60,316.00 73.00,294.00 88.40,245.60 59.20,222.80 41.40,230.00 21.20,198.40 31.20,163.60 61.20,149.20 84.60,172.00 94.40,110.60 117.40,64.80 148.60,33.20 195.00,11.20 237.00,9.20 284.00,26.60 318.40,59.80 340.80,103.20 324.20,62.40Z"/>
<path fill="#736050" fill-rule="evenodd" d="M293.20,343.60 291.80,343.20 290.40,343.40 288.60,344.60 287.60,347.00 287.40,351.20 286.00,355.20 282.80,359.00 281.20,362.00 278.40,364.60 277.80,366.00 278.20,367.60 280.00,367.80 285.20,363.00 287.40,359.00 289.00,357.20 290.40,353.40 293.20,350.60 294.40,347.00 294.20,344.60Z M316.80,289.40 315.60,289.20 315.00,289.60 313.40,294.00 310.60,296.40 309.20,299.60 306.80,301.80 305.40,304.40 302.60,307.00 301.40,309.20 298.40,311.60 295.60,315.20 295.40,317.00 296.00,317.60 298.60,318.00 300.60,317.20 305.40,312.20 307.60,308.80 309.80,306.80 314.00,300.20 314.40,298.40 316.20,295.20 317.00,291.80Z M247.80,251.80 247.20,249.60 235.80,243.40 230.40,235.80 228.20,234.40 225.60,235.40 221.40,242.00 218.60,244.40 213.00,245.60 204.60,245.40 203.00,246.80 203.60,249.40 206.40,253.00 211.80,257.40 217.40,259.60 224.40,259.80 229.80,261.40 235.00,261.20 240.20,259.20 245.80,255.40Z M246.40,252.60 245.00,254.60 241.40,257.20 231.80,260.20 225.00,257.80 217.40,258.20 212.80,256.80 206.40,251.60 204.60,247.60 206.00,246.40 213.20,247.00 220.20,245.40 222.40,243.20 225.40,237.80 226.60,236.60 228.20,236.20 230.40,238.00 231.80,241.00 235.20,245.20 245.00,249.60 246.40,251.00Z M247.00,214.60 246.20,212.60 244.40,212.00 238.00,212.80 221.20,212.80 218.60,213.40 217.60,214.40 217.20,217.00 217.60,218.20 218.60,219.20 223.40,221.60 229.80,222.20 238.20,222.20 241.00,221.40 246.00,218.40 247.00,216.60Z M245.80,214.80 245.60,217.20 244.20,218.40 239.00,220.60 235.20,221.00 231.40,221.00 228.20,220.20 223.40,220.00 219.60,218.40 218.40,217.20 218.40,215.40 219.40,214.40 221.20,213.80 234.60,214.60 239.20,214.20 241.60,213.20 244.20,213.20 245.00,213.60Z M184.60,203.80 186.40,222.60 193.80,246.00 197.80,252.20 207.80,261.40 216.60,266.00 228.40,268.80 241.40,266.20 253.20,257.00 262.20,238.80 265.40,220.60 265.60,207.60 264.20,205.00 258.80,204.20 212.00,207.80 198.60,206.00 188.00,202.40Z M186.40,206.00 189.00,204.80 199.40,208.40 211.20,209.80 259.20,205.80 263.00,206.60 264.00,210.40 261.20,237.40 252.40,256.00 247.80,260.80 240.00,265.00 230.40,266.60 218.60,265.40 204.40,257.40 194.40,244.00 187.20,217.60Z M207.40,142.20 205.80,142.60 204.40,143.80 203.60,145.20 202.60,148.80 202.60,154.80 203.40,157.20 205.00,160.00 206.80,161.40 209.20,161.40 210.00,161.20 211.20,160.20 213.00,156.40 213.40,148.60 213.00,145.80 212.20,143.80 210.40,142.40Z M207.80,143.20 209.40,143.40 210.20,143.80 211.20,144.80 212.20,147.80 212.20,150.00 211.80,151.00 211.80,153.40 212.00,153.60 211.80,156.40 211.00,158.00 209.60,159.40 208.40,159.80 207.40,159.80 206.60,159.40 205.40,158.20 204.40,155.80 204.40,147.60 205.40,144.80 206.60,143.60Z M267.20,133.40 262.80,133.60 257.60,138.00 255.20,143.20 258.40,151.20 262.80,154.20 264.60,157.00 264.40,169.60 260.60,179.20 256.40,181.60 255.00,184.40 255.20,187.20 257.00,188.40 260.00,188.40 262.60,187.20 269.20,180.20 273.00,170.00 273.80,158.40 273.20,144.00 268.80,134.80Z M266.20,134.40 269.40,138.60 272.20,147.00 272.20,167.00 271.20,172.00 267.40,181.00 262.40,186.20 258.40,187.20 256.80,185.80 256.80,183.80 261.20,180.20 264.20,174.60 265.40,170.40 265.80,156.00 264.20,153.20 258.40,149.00 257.20,141.60 258.40,138.80 262.80,135.00Z M286.00,104.80 279.00,105.40 273.60,117.20 260.80,128.20 225.40,139.80 221.00,134.60 213.80,137.60 198.20,133.40 167.00,115.60 164.00,124.20 181.60,131.80 177.80,146.40 177.80,176.00 186.60,193.40 199.40,197.20 213.40,185.40 217.80,174.60 218.80,144.80 223.80,141.40 226.80,145.60 232.40,142.60 236.00,144.40 235.00,168.80 242.60,188.00 253.40,195.60 265.20,193.40 278.00,174.00 278.40,143.60 272.20,128.60 285.00,113.80Z M168.00,117.20 171.40,118.00 180.40,125.20 203.00,137.40 215.00,139.00 220.40,136.60 222.20,138.20 221.80,140.60 217.60,144.00 216.20,174.20 212.60,184.20 203.80,193.80 193.00,195.40 187.20,191.80 182.40,184.60 179.20,174.60 178.80,151.60 179.60,143.00 182.80,132.40 176.20,126.60 165.60,122.80 165.80,119.80Z M283.60,105.80 285.40,109.40 281.20,117.80 270.60,128.20 276.80,142.80 278.00,152.60 277.40,170.80 273.40,182.20 262.40,193.40 250.80,193.40 243.20,186.40 238.60,177.60 237.00,164.80 237.20,142.80 228.40,140.60 231.60,137.60 250.20,134.20 261.60,129.20 274.20,118.20 278.20,112.40 279.40,107.40Z M278.20,52.40 277.20,52.20 276.00,52.40 274.60,54.60 274.60,55.80 274.40,56.00 274.60,61.60 273.80,63.60 273.80,64.60 274.40,65.20 276.40,65.20 278.00,64.40 279.40,64.20 281.20,63.20 281.80,62.60 283.00,62.20 285.00,60.20 285.00,58.80 283.20,55.60 281.00,53.60 280.00,53.40Z M267.00,30.00 201.80,22.00 138.40,55.00 98.00,135.80 108.40,193.80 55.80,160.00 50.40,206.80 56.40,180.00 33.00,174.80 42.00,220.40 102.00,235.80 81.60,298.80 18.00,357.80 32.40,386.60 80.60,362.00 81.80,421.80 148.80,367.80 168.80,432.80 229.80,373.80 250.80,421.80 296.80,377.20 349.80,238.20 260.20,420.40 235.80,370.60 176.60,431.60 158.00,421.40 158.00,366.60 90.60,421.80 73.20,410.20 78.00,357.80 38.20,384.60 19.00,372.40 34.40,327.40 85.20,295.20 102.80,236.80 42.20,219.40 32.60,192.00 53.20,177.20 52.80,208.20 63.20,161.40 109.60,194.20 106.60,109.60 167.60,34.60 232.60,23.20 294.20,50.20 328.40,105.80 332.60,201.80 349.80,200.00 333.80,201.00 325.80,92.60Z M43.20,170.20 45.40,172.60 45.80,174.20 45.80,175.40 45.20,177.00 43.20,178.40 42.00,179.80 41.40,181.00 40.20,182.20 39.40,182.60 36.20,182.40 34.40,181.40 33.20,179.80 33.20,177.00 33.80,175.60 35.60,172.80 37.80,170.40 39.00,169.80 41.80,169.60Z M272.00,13.00 151.00,22.40 79.80,152.40 21.00,169.80 27.20,225.40 82.00,252.00 2.00,376.00 79.80,440.80 3.60,376.60 83.00,249.40 27.20,223.80 18.40,179.40 80.00,154.20 114.40,60.00 191.40,6.40 280.60,18.60 345.20,98.20 259.00,15.60 143.80,38.60 86.20,172.00 58.80,150.40 26.60,173.60 30.60,220.20 89.60,245.20 10.60,379.20 64.20,384.60 84.20,433.00 147.00,398.40 164.60,440.80 229.40,400.40 260.00,431.00 336.20,294.00 285.40,424.00 222.80,413.40 197.00,440.80 222.80,414.80 274.80,433.40 337.00,293.00 259.00,430.00 228.80,399.00 166.80,440.00 148.20,397.40 85.80,432.00 64.80,383.40 9.80,370.00 90.60,245.40 31.20,219.80 26.80,174.80 58.60,151.60 86.60,173.20 146.00,38.20 252.00,14.80 345.40,100.80Z"/>
<path fill="#0b0908" fill-rule="evenodd" d="M186.60,206.00 187.40,217.60 194.60,244.00 204.40,257.20 218.60,265.20 230.40,266.40 240.00,264.80 247.80,260.60 252.20,256.00 261.00,237.40 263.20,220.20 263.00,206.80 259.20,206.00 211.20,210.00 199.40,208.60 189.00,205.00Z M248.00,251.80 246.60,254.80 242.40,258.20 235.00,261.40 229.80,261.60 224.40,260.00 217.40,259.80 211.60,257.40 206.20,253.00 203.40,249.40 202.80,246.80 204.60,245.20 213.00,245.40 218.60,244.20 221.20,242.00 226.40,234.60 228.20,234.20 230.60,235.80 236.60,244.00 245.80,248.40 247.60,250.00Z M247.20,214.60 247.20,216.60 246.00,218.60 241.00,221.60 238.20,222.40 229.80,222.40 222.60,221.60 219.00,219.60 217.40,218.20 217.00,217.00 217.40,214.40 218.80,213.20 221.20,212.60 238.00,212.60 244.40,211.80 246.00,212.40Z M167.80,117.40 165.60,120.80 166.00,123.20 176.40,126.60 183.00,132.40 179.80,143.00 179.00,151.60 179.40,174.60 182.60,184.60 187.40,191.80 192.40,195.00 203.80,193.60 212.40,184.20 216.00,174.20 217.40,144.00 221.60,140.60 222.00,138.20 220.40,136.80 215.00,139.20 203.00,137.60 180.40,125.40 171.40,118.20Z M207.40,142.00 210.40,142.20 212.40,143.80 213.20,145.80 213.60,148.60 213.40,155.60 213.00,157.00 211.60,159.80 210.20,161.20 209.20,161.60 206.80,161.60 206.00,161.20 203.80,158.40 202.40,154.80 202.40,148.80 203.40,145.20 204.80,143.20 206.40,142.20Z M283.60,106.00 279.60,107.40 278.40,112.40 274.40,118.20 261.60,129.40 250.20,134.40 231.60,137.80 228.60,140.60 237.40,142.80 237.20,164.80 238.80,177.60 243.40,186.40 250.80,193.20 262.40,193.20 268.00,189.00 273.20,182.20 277.20,170.80 277.80,152.60 276.60,142.80 270.40,128.20 281.00,117.80 285.20,109.40Z M267.20,133.20 269.00,134.80 273.40,144.00 274.00,158.40 273.20,170.00 269.40,180.20 262.60,187.40 260.00,188.60 257.00,188.60 255.00,187.20 254.80,184.40 256.40,181.40 260.40,179.20 264.20,169.60 264.40,157.00 263.20,154.60 258.20,151.20 255.00,143.20 258.40,137.00 263.40,133.20Z"/>
</svg>