<svg xmlns="http://www.w3.org/2000/svg" viewBox="0 0 123 125" width="123" height="125" shape-rendering="geometricPrecision">
<path fill="#4a3f36" fill-rule="evenodd" d="M93.40,97.60 92.00,96.60 90.20,96.20 88.20,93.40 84.40,90.80 82.80,90.80 81.60,92.40 81.80,97.20 81.40,98.60 78.80,100.80 78.00,103.00 77.00,104.20 73.60,105.60 73.40,107.60 74.40,110.20 75.40,110.80 81.60,108.40 84.60,105.20 88.20,104.40 90.40,102.20 92.40,101.40 93.20,100.60 93.60,99.40Z M93.00,98.40 93.00,99.60 92.00,100.80 89.60,101.60 87.40,103.60 84.80,104.00 83.40,104.60 80.80,107.20 79.00,108.20 76.60,109.00 75.00,108.00 75.00,106.60 78.20,104.20 80.00,101.20 82.20,100.00 82.80,98.80 82.80,94.60 83.20,93.40 83.80,92.80 84.60,92.60 87.00,93.60 89.60,96.80 90.40,97.20 91.80,97.20Z M52.80,7.80 35.60,13.20 17.80,28.80 9.60,44.60 6.60,57.00 9.60,82.80 14.00,91.20 30.60,109.20 50.00,117.00 65.40,117.40 90.00,109.20 106.20,93.40 114.20,78.20 114.20,46.00 105.60,29.80 92.20,16.80 76.80,9.00Z M43.20,97.80 44.40,98.60 49.40,105.80 50.00,107.40 50.00,109.80 49.00,111.20 46.80,112.00 41.80,112.60 39.40,112.40 38.40,112.00 36.80,109.80 36.80,109.40 37.80,108.60 42.40,109.60 44.00,110.40 46.40,110.20 47.00,109.20 47.20,106.20 46.40,104.60 43.60,103.20 42.60,102.00 42.40,98.40Z M29.40,98.80 30.80,97.60 32.80,97.00 33.40,96.40 34.20,94.40 35.00,93.60 35.80,93.20 37.20,93.40 38.20,94.80 39.40,98.00 40.60,99.60 41.40,103.00 42.60,104.00 44.20,104.60 45.40,105.80 45.40,108.20 44.20,109.00 41.00,108.40 39.00,107.20 36.00,104.60 32.60,103.80 30.60,102.00 29.40,100.00Z M70.40,86.40 72.60,87.80 76.00,89.20 77.60,91.00 77.60,93.20 76.20,97.20 73.40,99.80 72.40,102.20 69.60,104.80 68.40,107.00 66.20,108.60 64.00,108.80 63.20,108.20 62.40,106.60 62.60,99.00 63.20,96.00 62.60,92.20 62.80,88.60 63.20,87.60 65.20,86.20Z M54.60,86.20 56.00,86.60 56.80,87.40 57.60,90.80 57.40,106.60 56.60,108.20 55.20,109.20 53.40,108.80 52.20,107.60 50.20,103.20 46.60,99.80 45.80,98.20 45.20,95.40 42.40,92.80 42.20,91.00 43.80,89.80 51.60,88.40Z M69.60,82.80 69.60,83.40 68.40,84.40 64.80,84.80 62.60,85.60 61.60,87.20 61.20,89.20 60.00,90.20 59.20,89.60 58.80,88.80 58.00,85.80 56.00,83.60 56.00,83.20 58.80,80.80 59.40,79.60 60.20,79.00 60.80,79.20 62.60,80.80 63.80,81.20 66.40,81.40 68.00,81.80Z M11.20,74.20 13.20,76.00 14.40,82.80 17.20,85.20 18.60,90.00 21.40,92.40 22.80,96.00 25.20,96.00 34.60,88.20 35.40,86.20 34.80,79.00 35.80,78.00 38.40,85.20 45.80,85.20 47.20,86.20 45.40,88.20 40.60,89.60 39.00,92.20 36.20,91.60 34.60,92.40 32.00,96.00 27.80,98.60 30.80,104.20 35.40,106.00 36.00,108.80 31.40,108.40 29.40,105.40 27.20,104.40 18.60,95.80 17.00,91.60 14.40,89.20 13.20,84.00 10.40,81.00Z M15.40,65.40 28.00,65.40 30.40,66.40 31.40,68.00 31.20,72.00 32.40,75.00 33.80,86.40 32.40,88.40 30.60,89.40 29.00,91.40 24.60,94.80 23.00,94.20 22.00,90.60 19.20,88.40 18.00,83.80 15.20,80.20 14.20,71.60 13.00,67.80Z M62.80,66.20 64.60,65.40 71.00,65.20 83.00,65.40 84.00,65.80 85.00,67.00 85.20,69.00 84.60,70.40 83.60,78.00 81.60,83.00 79.80,84.20 78.60,84.20 77.00,83.40 75.20,81.60 73.00,80.80 67.00,80.40 64.00,79.60 63.00,78.20 64.20,74.20 64.20,72.60 62.20,68.60 62.20,67.00Z M57.00,65.80 58.40,67.80 57.40,71.40 58.00,78.20 57.20,80.00 55.80,80.80 53.60,80.60 49.40,81.60 45.00,83.80 42.60,84.20 39.80,83.80 38.40,81.40 38.20,70.80 37.40,68.80 37.60,66.80 39.60,65.40 49.00,65.20Z M108.00,65.40 109.40,66.60 109.60,68.80 108.40,71.40 108.20,74.20 105.60,79.40 104.40,85.20 101.80,87.40 100.20,91.80 97.20,94.40 96.00,94.60 94.40,92.40 88.00,86.20 88.00,85.00 90.40,80.80 90.80,72.00 90.40,67.00 92.00,65.40 99.20,65.00Z M49.60,62.40 51.00,61.40 55.00,61.20 58.00,60.00 59.00,58.00 59.40,55.80 60.20,55.20 61.00,55.80 62.40,59.00 63.80,60.20 66.80,61.20 71.80,61.60 72.60,62.20 72.60,62.80 71.80,63.40 68.40,64.20 62.60,64.60 60.80,65.40 59.00,65.40 56.40,64.60 51.80,64.40 50.40,63.80 49.60,63.00Z M112.20,52.00 112.80,76.60 109.40,86.00 98.60,100.80 80.80,112.40 74.80,112.00 64.40,116.00 50.40,115.00 49.40,111.80 56.80,110.80 60.00,105.00 62.20,110.20 68.00,109.00 77.20,98.40 78.80,90.60 75.80,86.00 85.20,81.20 86.20,67.20 84.20,64.60 74.00,62.20 85.00,60.00 86.00,49.20 88.40,50.40 90.00,59.80 97.60,62.40 89.80,66.00 88.80,79.00 86.40,87.00 95.80,95.80 101.20,92.00 109.40,77.40 110.60,66.80 101.80,62.20 109.00,60.20Z M45.80,62.60 44.00,64.00 39.20,64.40 35.40,65.80 34.00,65.80 32.40,64.60 16.00,64.00 11.00,65.80 9.40,63.80 9.20,61.40 10.40,59.00 16.20,61.60 32.00,60.40 33.40,57.60 35.00,44.60 35.80,44.00 36.80,45.00 37.20,47.00 36.80,59.00 39.00,61.00 44.40,61.60Z M13.00,43.80 13.80,44.40 13.80,44.80 13.60,45.00 13.60,50.00 13.40,50.20 13.40,51.20 13.20,51.40 13.20,52.00 12.40,53.60 12.00,54.00 11.40,54.20 10.40,53.40 10.40,52.20 10.20,52.00 10.20,48.80 10.40,48.60 10.40,47.60 10.60,47.40 10.60,46.80 11.20,45.80 11.40,45.00 12.20,44.20Z M80.00,40.60 81.40,42.40 82.60,49.40 84.40,54.40 84.40,58.40 83.40,59.40 82.20,59.80 76.20,59.60 75.20,59.20 67.00,59.80 64.80,59.20 63.20,57.00 63.20,53.80 64.00,51.40 63.80,43.60 64.80,42.60 67.60,41.60 74.20,41.40 77.20,40.40Z M39.40,41.40 41.60,40.60 44.80,40.20 48.80,41.40 55.40,41.60 57.60,43.00 57.60,58.20 56.80,59.40 55.40,60.20 46.60,60.20 44.40,59.80 41.00,60.40 39.40,59.80 38.40,58.80 38.20,55.80 39.00,48.20 38.60,42.60Z M80.20,31.40 81.40,32.00 82.40,33.00 84.20,35.80 86.40,43.60 86.40,45.80 85.40,46.60 84.60,46.20 83.40,45.00 82.40,43.20 82.20,41.60 81.20,39.60 79.20,38.00 78.00,37.40 77.20,36.60 77.20,35.40 78.60,32.80Z M49.00,38.00 50.40,37.20 56.60,37.20 58.20,36.80 58.80,36.20 59.40,31.80 60.20,31.20 61.20,32.20 61.60,34.60 62.60,36.60 66.40,37.40 73.00,37.40 73.80,38.00 74.00,38.80 72.00,40.20 67.20,40.40 62.40,41.40 61.60,42.00 61.40,42.80 60.40,43.40 59.60,42.80 59.60,41.80 59.00,41.00 52.00,40.40 49.60,39.40 49.00,38.80Z M95.80,30.00 98.00,30.60 101.20,34.40 102.40,37.40 104.60,39.80 105.80,45.80 109.20,52.60 109.20,58.00 107.20,59.80 99.80,59.20 92.60,60.20 90.40,58.20 90.20,49.20 89.40,45.60 86.40,39.80 86.20,36.60 86.40,35.80 87.80,34.80 93.60,33.20 94.60,31.00Z M25.60,30.00 26.80,31.00 28.00,33.20 32.40,34.40 34.60,38.60 34.60,40.20 33.40,42.40 32.60,52.40 31.40,57.20 30.20,58.80 29.00,59.40 20.40,59.20 17.00,60.40 16.00,60.20 13.40,58.20 15.20,46.80 18.20,42.60 19.40,36.80 22.20,34.60 22.80,31.20 24.40,30.00Z M28.20,30.00 29.00,29.20 30.20,28.60 32.20,28.60 33.40,29.20 35.60,32.00 37.00,32.00 39.80,30.40 40.60,31.00 41.60,33.80 42.60,34.80 43.00,35.60 43.00,36.40 42.00,37.80 40.00,39.00 38.80,39.00 36.00,37.60 34.60,36.00 34.20,34.80 33.20,33.60 30.80,33.20 29.00,32.40 28.40,31.80Z M85.40,31.20 86.00,30.00 86.80,29.20 87.00,29.20 87.80,28.60 88.40,28.60 88.60,28.40 91.40,28.40 91.60,28.60 92.60,28.60 93.40,29.20 93.40,29.60 93.60,29.80 93.60,31.00 93.40,31.20 93.40,31.60 93.20,32.00 92.00,33.00 91.60,33.20 91.20,33.20 91.00,33.40 89.80,33.40 89.60,33.60 86.60,33.60 86.20,33.40 85.60,32.80 85.40,32.40Z M46.00,22.00 46.40,22.40 46.40,23.40 46.20,23.60 46.20,24.80 46.00,25.00 46.00,25.60 45.80,25.80 45.80,26.20 45.60,26.40 45.60,26.80 45.40,27.00 45.40,27.20 45.00,27.60 44.80,27.60 44.20,28.20 44.00,28.20 43.80,28.40 42.20,28.40 42.00,28.20 41.80,28.20 41.40,27.80 41.40,25.80 41.60,25.60 41.60,25.00 41.80,24.80 41.80,24.60 42.20,24.20 42.40,23.60 42.80,23.20 43.00,23.20 43.60,22.60 43.80,22.60 44.00,22.40 44.40,22.40 44.60,22.20 45.00,22.20 45.60,21.80 45.80,22.00Z M77.00,17.60 78.20,17.00 80.60,17.60 82.20,17.60 83.40,18.20 84.40,19.20 85.60,21.20 87.80,21.60 89.80,22.60 91.80,24.80 92.40,26.20 92.20,27.00 91.40,27.60 87.40,27.80 85.40,28.60 84.20,29.60 83.20,29.40 82.40,28.20 82.00,26.20 79.40,23.80 78.40,21.80 78.20,20.80 77.60,20.00Z M44.60,17.00 45.20,18.60 44.60,20.40 43.60,21.40 42.60,21.80 41.40,22.80 40.60,24.40 40.20,26.20 37.00,29.80 36.20,30.00 34.20,28.40 30.20,27.60 29.40,27.00 29.40,26.20 30.80,23.40 31.60,22.40 33.00,21.80 34.60,21.80 36.20,21.40 37.20,20.00 38.80,18.60 43.20,16.40 43.80,16.40Z M64.60,14.20 66.60,14.20 68.60,15.60 69.80,19.00 72.20,20.80 73.60,25.20 77.40,28.60 77.80,29.80 77.40,32.20 76.00,34.00 74.00,35.20 70.40,36.20 66.60,36.20 64.40,35.40 63.40,34.20 62.60,29.40 62.60,16.40 63.20,15.20Z M54.80,14.20 56.60,14.40 57.60,15.80 57.20,21.40 57.80,33.80 57.40,35.00 55.80,36.20 54.00,36.20 50.40,34.80 49.60,35.00 48.20,34.40 46.20,34.20 43.80,33.20 42.60,31.80 42.60,30.80 46.20,28.00 47.40,24.60 50.00,22.20 51.60,17.00 53.00,15.40Z M79.40,12.60 83.20,12.80 84.80,13.60 86.60,16.00 91.20,17.60 92.80,20.00 96.20,21.60 105.40,31.60 106.80,35.80 109.40,38.40 110.40,43.20 112.20,46.00 112.60,50.20 112.00,51.40 110.80,51.00 109.00,46.60 106.80,44.20 105.60,38.80 102.60,35.40 100.80,31.80 98.60,29.80 94.00,27.60 91.20,22.00 86.60,20.40 84.20,17.40 79.80,16.20 78.60,14.40Z M74.20,12.00 74.40,18.40 77.60,21.60 78.00,25.80 74.40,24.20 73.40,19.40 67.80,13.60 62.80,13.60 60.00,19.60 57.60,13.60 53.60,13.60 50.60,16.40 49.00,20.80 46.60,22.40 45.80,16.20 44.00,14.20 36.80,18.20 35.00,20.60 31.40,21.60 27.40,28.00 23.00,29.60 21.00,33.80 18.20,35.60 17.20,41.40 14.80,43.40 13.40,43.00 14.40,36.60 17.20,34.20 18.20,29.80 30.80,17.20 35.20,16.00 37.60,13.40 44.00,12.60 53.60,8.60 59.40,9.60 67.40,8.60Z"/>
<path fill="#887462" fill-rule="evenodd" d="M69.40,82.80 68.00,82.00 63.20,81.20 62.00,80.60 60.20,78.80 59.00,80.80 56.20,83.20 56.20,83.60 58.20,85.80 59.00,88.80 59.80,90.40 61.00,89.20 61.40,87.20 62.60,85.40 64.80,84.60 68.40,84.20 69.20,83.80Z M45.60,62.60 44.40,61.80 39.00,61.20 36.60,59.00 37.00,47.00 36.00,43.60 35.20,44.60 34.20,55.00 33.20,59.20 32.20,60.40 30.80,61.00 16.20,61.80 10.20,59.20 9.40,61.40 9.60,63.80 11.00,65.60 16.00,63.80 32.20,64.40 34.00,65.60 35.40,65.60 39.20,64.20 44.00,63.80Z M80.00,31.60 78.80,32.80 78.20,34.20 77.80,34.60 77.40,35.40 77.40,36.60 80.00,38.40 81.60,40.00 82.40,41.60 82.60,43.20 83.40,44.40 83.60,45.20 84.80,46.20 86.00,46.40 86.20,45.80 86.00,42.40 85.40,41.20 85.20,39.60 84.00,35.80 82.20,33.00 80.60,31.60Z M49.00,38.20 49.20,39.00 52.00,40.20 57.20,40.40 59.20,41.00 60.60,44.40 61.40,42.00 62.60,41.20 67.20,40.20 72.20,40.00 73.80,38.80 73.60,38.00 73.00,37.60 66.40,37.60 62.40,36.60 61.40,34.60 61.00,32.20 60.00,30.80 59.60,31.40 59.00,36.20 58.40,36.80 56.60,37.40 50.40,37.40Z M28.60,29.60 28.40,30.00 28.60,31.80 30.80,33.00 31.80,33.00 33.00,33.40 34.40,34.80 34.80,36.00 35.40,36.80 36.80,38.00 38.80,38.80 40.00,38.80 42.00,37.60 43.00,36.00 42.40,34.80 41.40,33.80 40.80,31.80 40.00,30.60 39.60,30.60 37.00,32.20 35.80,32.20 34.40,31.00 34.00,30.00 33.40,29.40 32.20,28.80 30.20,28.80Z M85.60,31.20 85.60,32.40 85.80,32.60 85.80,32.80 86.60,33.40 89.60,33.40 89.80,33.20 91.00,33.20 91.20,33.00 91.60,33.00 91.80,32.80 92.00,32.80 93.00,32.00 93.00,31.80 93.20,31.60 93.20,31.20 93.40,31.00 93.40,29.80 93.20,29.60 93.20,29.20 92.60,28.80 91.60,28.80 91.40,28.60 88.60,28.60 88.40,28.80 87.80,28.80 87.00,29.40 86.80,29.40 86.20,30.00 86.20,30.20 85.80,30.60 85.80,31.00Z M84.20,13.40 78.80,14.40 101.00,31.80 111.40,51.80 110.20,59.00 102.00,62.20 111.00,67.60 105.60,86.20 96.20,96.00 86.20,87.00 89.40,66.40 97.40,62.80 89.80,59.80 87.00,48.40 84.40,60.60 66.80,61.40 60.00,55.00 49.60,62.80 86.20,66.40 85.40,81.20 76.00,85.80 77.60,98.00 65.20,110.60 59.80,104.60 56.80,111.00 49.60,111.20 40.40,93.60 47.20,109.20 36.80,108.60 27.60,98.60 46.80,85.80 38.60,85.40 35.60,76.80 34.80,88.20 23.40,96.40 11.00,74.40 18.80,95.80 38.80,112.00 48.40,111.00 54.80,115.80 81.00,112.20 98.00,101.20 109.20,86.00 112.00,46.00 105.20,31.60Z M93.60,97.60 93.80,99.40 93.40,100.60 92.40,101.60 90.40,102.40 88.80,104.20 84.60,105.40 82.00,108.40 75.40,111.00 74.20,110.20 73.20,107.60 73.40,105.80 77.00,104.00 78.60,100.80 81.20,98.60 81.60,97.20 81.40,92.40 82.60,90.80 83.40,90.40 84.40,90.60 88.20,93.20 90.20,96.00 92.00,96.40Z M74.00,12.00 67.40,8.80 53.60,8.80 43.80,12.80 38.00,13.40 35.40,16.00 30.60,17.40 18.40,29.80 17.40,34.20 14.60,36.60 13.60,43.20 10.60,47.60 10.80,53.80 13.00,52.00 13.60,44.20 17.00,41.40 18.00,35.60 20.80,33.80 22.80,29.60 27.20,28.00 31.40,21.40 45.00,14.20 46.20,21.00 41.60,25.80 41.60,27.80 43.80,28.20 52.40,14.20 56.20,13.00 58.60,14.40 60.00,22.80 61.40,15.00 63.40,13.20 67.20,13.20 73.60,19.40 74.60,24.20 78.00,26.00 77.40,21.60 74.20,18.40Z"/>
</svg>