<svg xmlns="http://www.w3.org/2000/svg" viewBox="0 0 171 177" width="171" height="177" shape-rendering="geometricPrecision">
<path fill="#a67816" fill-rule="evenodd" d="M84.40,7.60 55.00,14.60 31.40,31.40 19.40,46.80 10.60,66.60 7.40,92.60 14.80,125.20 27.80,145.20 48.80,161.00 59.80,165.00 94.60,168.80 120.00,160.80 145.00,140.80 157.20,117.60 163.00,82.80 153.00,48.80 139.20,30.80 116.00,14.60Z M81.80,156.40 81.80,155.60 82.40,155.00 84.80,153.80 85.20,154.00 86.40,152.80 86.60,150.60 87.20,150.00 88.40,150.00 89.60,149.20 90.20,149.20 91.20,150.00 93.00,150.40 94.20,151.60 94.20,152.40 94.60,152.80 96.40,152.40 97.40,153.00 98.40,153.00 99.80,153.80 100.40,154.60 100.40,155.40 99.80,156.20 97.00,157.20 95.20,156.20 94.00,154.60 93.40,154.80 92.20,154.00 89.20,154.20 88.60,155.00 88.00,155.00 85.40,157.80 84.60,157.80 83.80,158.40 83.20,158.20Z M50.00,135.40 50.40,135.00 51.20,134.80 52.00,135.20 52.80,135.20 55.20,136.00 55.80,136.00 56.00,135.80 60.80,135.80 61.80,136.40 63.40,138.00 63.40,138.80 62.60,139.40 62.00,139.40 61.80,139.20 58.80,139.20 58.60,139.00 56.40,139.00 56.20,138.80 54.80,138.80 54.60,138.60 52.40,138.60 51.40,138.20 50.60,137.40 50.00,136.20Z M138.80,104.80 138.40,108.60 135.60,111.00 134.60,116.20 131.60,119.20 131.20,124.80 127.60,126.80 126.80,130.80 119.20,135.60 117.20,138.60 112.00,139.60 110.00,142.40 103.40,144.20 102.60,147.00 100.80,148.20 77.60,147.60 65.60,142.20 63.60,140.00 64.40,138.40 67.80,138.60 74.80,142.20 88.60,143.20 97.40,141.80 116.00,134.00 126.40,125.00 127.20,119.60 129.80,116.60 131.40,111.80 134.40,109.60 137.00,104.60Z M137.60,98.80 125.40,124.20 120.60,129.60 105.40,137.60 88.00,142.40 77.20,141.60 61.00,134.60 51.80,133.40 44.20,119.60 33.00,106.00 36.80,94.80 42.20,93.20 59.80,121.20 72.20,120.80 88.20,125.60 96.80,122.20 113.20,121.20 122.40,96.20 126.60,91.00 130.00,90.40 133.20,92.40Z M28.40,106.00 29.40,97.80 35.60,89.80 44.40,87.00 51.20,91.60 51.80,100.40 63.60,116.20 84.00,116.00 86.80,120.00 90.60,115.40 101.20,115.40 98.60,109.60 101.80,109.80 107.80,116.40 116.40,103.40 118.20,95.20 121.00,96.00 111.80,121.20 103.60,120.20 85.60,124.80 72.00,119.40 60.00,120.40 47.00,101.40 46.00,94.00 37.60,92.40 31.60,103.20 32.60,109.20 44.40,121.60 49.00,134.80 45.20,133.20Z M91.60,56.00 92.40,56.60 92.40,57.80 92.60,58.00 92.40,65.00 92.60,65.20 92.60,66.60 92.80,66.80 92.80,69.00 92.60,69.40 91.80,70.00 91.20,69.80 90.40,68.60 90.40,66.00 90.20,65.80 90.20,65.00 90.00,64.80 90.00,61.80 90.20,61.60 90.40,57.00Z M105.60,41.00 108.80,41.00 111.00,41.80 116.60,47.20 118.60,51.20 119.60,56.60 119.60,64.80 117.60,75.80 113.20,81.60 107.60,84.00 105.80,84.00 102.40,82.60 98.20,77.80 94.40,65.40 94.60,57.20 98.00,47.60 102.60,42.20Z M63.60,40.00 68.80,41.40 73.60,46.80 75.40,53.00 76.40,60.20 76.40,65.60 74.40,76.00 70.20,81.40 65.20,83.80 62.80,83.80 58.80,82.20 55.00,78.20 53.40,75.40 51.20,66.40 51.60,57.60 54.20,47.40 58.80,42.00Z M106.00,36.40 112.80,37.60 122.60,46.40 126.60,59.00 123.60,66.80 122.20,76.40 119.20,78.40 118.20,81.80 113.60,86.40 107.40,88.80 102.60,86.80 101.40,85.00 103.00,84.40 107.20,86.20 114.00,82.20 115.40,79.40 118.40,77.40 121.60,60.20 118.20,47.40 113.00,41.60 108.00,39.60 101.60,41.40 100.40,44.00 97.40,46.20 95.60,51.00 94.00,52.40 93.20,51.80 93.40,47.00 96.40,44.60 97.40,41.60 102.00,37.40Z M63.20,34.20 71.80,38.20 78.80,47.80 77.80,52.40 70.00,41.20 63.40,38.20 53.80,45.80 50.40,53.80 49.60,70.00 53.40,78.20 58.00,83.00 64.60,86.20 74.40,78.60 77.00,72.20 78.80,73.00 78.40,77.80 74.60,83.00 64.40,90.20 61.80,90.00 52.40,83.80 45.20,68.60 45.60,57.20 48.40,52.00 49.20,46.00 57.00,37.40Z M51.20,18.60 53.40,19.20 52.40,21.40 35.60,32.60 23.40,47.60 15.60,69.60 13.60,96.40 15.40,114.40 23.60,131.80 44.40,152.20 56.80,158.60 53.80,161.00 44.00,156.60 23.40,138.60 11.60,112.40 9.20,92.40 11.40,67.40 19.60,48.60 36.40,27.40Z M123.00,19.20 144.20,37.80 156.20,58.60 161.40,84.20 160.20,101.60 152.60,126.60 140.20,145.40 118.40,160.60 94.00,167.60 61.80,164.40 58.80,160.80 102.40,161.00 119.60,156.40 140.20,139.00 152.00,117.20 156.20,104.80 157.20,86.80 152.40,60.60 139.40,37.60 117.40,19.40Z M108.00,15.00 108.80,14.40 109.40,14.80 110.20,14.80 110.40,15.00 112.20,15.00 112.40,15.20 114.00,15.20 114.20,15.40 114.80,15.40 115.80,16.20 116.40,16.40 117.40,17.40 117.80,18.20 117.80,18.60 117.00,19.20 116.20,18.80 114.80,18.80 114.60,18.60 112.00,18.40 111.00,17.80 110.20,17.60 108.00,15.40Z M108.20,14.00 107.40,15.00 106.60,14.20 91.20,14.40 86.20,12.60 82.60,14.60 73.40,15.40 64.00,15.00 60.40,18.40 54.60,18.80 53.80,18.20 55.80,15.80 59.20,14.40 62.20,14.20 66.60,11.40 72.60,11.40 85.00,9.60 104.20,11.80Z"/>
<path fill="#c08e1e" fill-rule="evenodd" d="M92.20,55.80 90.80,56.60 90.60,57.00 90.40,61.60 90.20,61.80 90.20,64.80 90.40,65.00 90.40,65.80 90.60,66.00 90.60,68.60 91.00,69.40 91.80,70.20 92.20,70.20 92.20,69.60 92.60,69.00 92.60,66.80 92.40,66.60 92.40,65.20 92.20,65.00 92.20,61.20 92.40,61.00Z M106.00,36.60 102.00,37.60 97.60,41.60 96.60,44.60 93.60,47.00 93.40,52.00 96.20,50.00 97.20,46.20 101.80,41.20 108.00,39.40 112.80,41.40 118.40,47.40 121.80,60.20 118.60,77.20 114.00,82.40 106.60,86.40 101.60,84.40 93.60,72.80 93.80,77.80 97.00,80.20 98.00,83.00 107.40,88.60 114.00,86.00 118.00,81.80 119.00,78.40 122.00,76.40 123.40,66.80 126.40,59.00 122.40,46.40 112.80,37.80Z M65.00,34.40 58.00,36.80 49.60,45.60 45.60,58.40 45.40,68.60 48.80,78.00 53.80,85.00 62.00,90.00 64.40,90.00 71.00,86.00 78.80,76.00 77.80,71.60 75.40,77.40 71.40,82.00 63.80,86.40 58.00,83.20 53.20,78.20 49.40,70.00 49.40,56.20 53.20,46.40 62.40,38.40 65.00,38.00 70.00,41.00 78.40,52.60 78.20,46.40 74.20,40.80Z M67.60,11.40 35.40,28.60 11.40,68.60 15.40,123.80 43.60,156.20 56.60,159.40 23.40,131.60 13.60,81.00 23.20,47.80 46.80,23.20 86.20,12.40 117.20,19.00 144.40,43.80 157.40,80.00 140.40,139.00 110.60,160.60 83.80,158.40 126.20,131.20 138.40,104.40 121.20,130.60 82.20,143.40 49.80,134.40 32.40,109.20 35.20,94.60 46.40,94.40 60.00,120.20 111.80,121.00 120.20,94.80 108.60,116.00 98.40,109.80 86.80,120.20 64.20,116.80 45.00,87.40 29.80,97.40 45.80,133.60 89.40,148.80 79.60,161.40 59.60,163.00 94.00,167.40 141.20,144.20 161.00,79.80 152.20,49.40 129.40,23.60Z"/>
<path fill="#534014" fill-rule="evenodd" d="M137.40,98.80 133.20,92.60 126.80,91.00 122.60,96.20 117.20,114.00 112.40,122.00 102.80,121.40 88.20,125.80 72.20,121.00 59.60,121.20 46.20,102.00 42.80,93.60 37.00,94.80 33.20,106.00 41.20,115.00 51.80,133.20 61.00,134.40 77.20,141.40 88.00,142.20 105.40,137.40 120.60,129.40 125.20,124.20Z M135.00,98.00 133.20,106.20 120.00,128.40 104.00,136.40 89.20,140.60 78.80,140.40 64.20,133.80 53.40,132.40 46.00,119.20 34.40,106.00 37.40,96.60 41.40,94.40 45.60,104.00 52.60,111.60 58.60,122.20 73.20,122.40 83.40,127.00 88.80,127.20 102.20,122.80 108.00,125.40 114.00,123.00 126.40,94.20 131.40,93.60Z M105.60,41.20 102.60,42.40 98.20,47.60 94.80,57.20 94.60,65.40 98.40,77.80 102.40,82.40 105.80,83.80 107.60,83.80 113.20,81.40 117.40,75.80 119.40,64.80 119.40,56.60 118.40,51.20 116.80,47.60 110.40,41.60Z M107.40,42.20 111.00,43.60 115.80,48.80 117.20,51.40 117.60,66.40 116.60,74.00 113.20,79.20 111.00,81.20 107.00,82.00 103.20,81.40 98.40,74.80 97.00,61.80 97.60,54.60 99.20,48.40 103.60,43.20 104.80,42.40Z M63.60,40.20 58.80,42.20 54.40,47.40 51.80,57.60 51.40,66.40 53.60,75.40 55.20,78.20 58.80,82.00 62.80,83.60 65.20,83.60 70.20,81.20 74.20,76.00 76.20,65.60 76.20,60.20 75.20,53.00 73.40,46.80 68.80,41.60Z M61.40,42.20 65.40,42.00 68.20,42.60 72.60,48.00 73.40,50.20 74.00,58.80 73.40,74.00 72.40,76.40 69.40,80.00 67.20,81.60 60.00,81.20 55.40,76.00 54.40,73.20 53.80,61.80 54.80,49.80 58.80,44.00Z M83.60,5.60 51.00,14.60 26.40,34.60 9.60,64.40 5.80,98.60 13.60,126.40 30.60,149.40 47.40,162.00 68.60,169.80 97.80,170.20 122.00,161.60 146.00,141.80 161.60,109.60 165.40,81.60 153.80,47.00 136.80,26.40 109.20,9.80Z M84.40,7.40 107.80,11.20 135.00,26.60 153.20,48.80 163.20,82.80 157.40,117.60 145.20,140.80 120.00,161.00 94.60,169.00 59.80,165.20 48.80,161.20 27.80,145.40 14.60,125.20 7.20,92.60 10.40,66.60 19.20,46.80 31.20,31.40 55.00,14.40Z"/>
</svg>