<svg xmlns="http://www.w3.org/2000/svg" viewBox="0 0 700 293" width="700" height="293" shape-rendering="geometricPrecision">
<path fill="#ebe5c7" fill-rule="evenodd" d="M673.00,193.20 653.40,190.00 648.20,186.00 607.80,187.60 601.00,191.60 601.00,238.20 589.60,292.80 675.40,292.80 665.00,282.00 651.40,278.00 631.60,278.00 626.00,272.20 631.60,262.80 653.80,262.20 661.80,257.20 661.60,239.80 647.20,232.00 630.80,232.80 629.00,224.00 633.40,218.80 654.80,217.20 673.60,220.80 679.40,217.00 680.60,201.00Z M113.60,182.00 100.40,183.40 86.80,193.60 79.80,210.20 66.20,227.20 68.20,229.00 50.00,263.00 48.00,274.80 39.60,292.80 168.80,292.80 161.60,268.00 157.80,265.40 153.80,255.00 155.80,253.00 153.40,248.00 150.80,248.20 143.80,227.40 136.80,219.20 140.00,218.80 133.80,213.00 126.80,195.40Z M107.20,227.80 110.00,234.20 110.20,239.20 112.40,240.20 114.00,242.80 112.80,245.40 116.00,247.20 116.00,250.40 121.80,257.00 125.80,266.80 120.00,270.00 118.20,269.40 117.80,271.40 114.00,273.60 114.00,276.60 108.20,283.60 107.40,288.40 105.60,289.60 98.00,276.40 97.80,272.40 90.80,270.00 87.80,266.80 85.80,267.20 83.80,265.60 84.80,263.20 83.80,258.40 90.20,253.00 92.20,252.80 94.80,248.60 97.60,247.20 100.80,241.20 103.00,229.80 104.80,227.80Z M287.40,186.00 273.80,178.00 255.20,175.00 204.20,182.40 174.00,196.00 169.40,208.40 169.00,228.80 176.00,244.20 175.20,256.60 183.40,292.80 217.80,292.80 216.80,285.60 219.80,280.80 239.20,292.80 290.80,292.80 285.00,282.60 257.80,258.40 257.80,252.60 265.80,240.20 277.60,231.20 287.60,215.80 285.80,214.00 291.80,198.80Z M255.00,210.20 255.00,212.00 253.80,213.40 254.00,215.20 248.40,219.80 246.80,220.60 245.40,220.20 240.40,223.00 233.20,230.20 231.00,230.00 228.80,231.40 228.60,234.00 222.60,235.00 217.40,237.60 215.60,236.40 215.80,231.00 215.00,229.60 216.60,229.00 216.80,228.00 215.40,227.60 215.00,226.60 217.00,221.60 221.00,217.00 223.20,216.80 227.00,214.80 227.00,213.20 228.80,212.00 234.20,210.60 238.00,210.80 241.40,208.80 245.40,208.20 253.20,208.80Z M372.00,175.40 341.60,174.00 325.40,182.00 311.00,197.60 297.80,228.40 294.40,255.00 296.20,267.80 309.00,292.80 378.80,292.80 384.00,279.20 377.80,262.20 365.60,260.80 354.80,269.80 342.60,269.00 332.80,259.60 328.00,246.20 332.80,228.00 341.20,217.00 351.60,213.00 374.20,216.80 385.00,208.20 386.60,199.60 389.20,199.40 386.00,187.60Z M504.20,163.20 496.00,171.40 495.80,206.20 499.00,207.60 500.60,221.00 498.00,222.40 503.00,234.80 500.20,237.20 503.00,240.00 502.00,252.80 505.00,264.80 503.20,269.00 507.00,292.80 570.20,292.80 580.80,276.60 590.80,244.20 589.80,221.40 586.80,217.40 588.80,215.00 581.80,197.20 570.80,182.20 544.00,164.00 525.80,160.00Z M529.60,204.80 537.00,205.80 537.80,208.60 546.40,212.00 555.00,223.20 557.80,233.00 555.40,236.00 557.00,239.40 555.80,240.40 556.00,245.20 554.00,248.80 554.80,251.20 547.20,262.00 545.00,262.20 541.60,266.80 538.00,268.80 532.80,266.40 532.80,257.00 529.80,256.00 530.80,235.60 529.00,233.40 527.80,216.40 529.80,215.40 528.60,209.60Z M440.20,160.00 417.00,185.40 416.00,193.00 399.00,227.60 396.20,237.80 394.80,292.80 421.80,292.80 429.80,271.20 444.40,266.60 457.00,275.60 458.00,283.60 464.00,292.80 497.20,292.80 486.80,232.40 482.80,226.20 478.60,204.60 474.80,202.20 475.80,198.00 471.80,192.20 473.80,190.80 469.80,188.80 465.80,173.60 457.20,161.80Z M444.00,207.40 447.80,210.60 448.00,212.60 446.80,213.40 447.00,214.60 449.00,218.20 450.20,222.20 453.00,223.40 455.00,228.60 455.00,231.40 453.00,232.00 454.40,235.60 452.40,237.40 448.40,237.80 446.20,236.80 440.80,237.40 436.60,236.60 434.60,237.00 433.80,236.40 433.80,234.60 434.80,233.00 433.80,228.60 434.80,226.60 437.80,223.60 437.20,220.40 437.80,218.40 439.80,216.40 439.80,211.00Z M206.00,76.60 204.20,78.40 197.60,79.60 195.00,78.20 190.00,85.40 183.80,89.40 183.60,91.20 185.80,92.60 183.60,100.00 186.00,103.40 184.00,108.80 184.00,120.00 186.00,120.60 186.00,128.40 188.00,130.40 189.00,143.40 187.00,144.00 188.00,151.60 191.00,156.00 190.00,160.20 194.20,164.60 198.00,163.80 200.80,166.00 205.00,165.80 210.20,163.20 212.80,164.60 219.80,154.60 218.80,147.40 220.20,141.20 218.80,137.80 220.00,134.00 218.00,133.00 219.80,127.40 218.80,92.40 215.80,85.60Z M474.00,43.00 467.40,47.80 464.40,48.00 461.60,53.00 463.00,55.00 459.40,64.40 461.40,66.40 461.00,73.80 457.40,80.80 459.00,93.20 457.00,103.40 459.00,104.40 458.60,112.20 456.00,112.80 455.80,116.80 458.00,117.40 457.00,138.40 460.00,141.20 460.00,144.40 467.80,149.60 475.40,147.20 475.60,149.40 478.00,149.80 483.00,144.40 485.60,144.00 489.00,137.00 487.80,133.40 489.80,129.40 489.00,123.60 491.60,113.60 491.00,103.00 492.60,100.80 491.00,97.40 493.80,91.40 491.80,87.60 492.80,82.80 494.80,81.60 494.80,65.20 492.40,64.40 492.80,55.40 487.60,47.60 476.80,45.20Z M667.40,38.00 656.20,33.00 639.40,33.00 577.00,53.40 562.00,89.00 561.00,143.40 572.40,161.80 595.80,168.80 628.40,165.80 656.40,171.80 672.60,165.20 673.80,150.40 662.20,136.20 632.60,129.60 611.60,132.00 604.20,124.60 619.00,114.80 633.00,114.60 642.80,105.20 640.60,91.20 634.00,88.40 611.40,91.80 605.80,87.40 607.80,80.60 633.60,69.80 653.60,69.80 668.60,64.60 676.00,52.00Z M432.00,30.40 433.00,31.60 435.80,33.20 438.00,32.60 442.60,33.80 444.20,35.20 444.20,36.40 444.80,36.80 453.60,36.60 455.60,35.00 460.00,33.80 461.40,34.80 462.80,34.80 464.80,33.60 464.40,32.20 465.20,31.60 466.40,31.80 466.80,30.80 466.20,30.00 432.60,30.00Z M345.20,30.20 336.60,76.20 335.80,111.60 330.00,127.60 334.00,130.40 330.00,141.60 335.00,157.60 350.60,158.40 351.20,161.40 359.80,155.80 366.80,137.60 368.80,112.40 365.80,110.40 372.80,89.60 408.00,149.60 430.40,148.80 438.60,133.60 445.80,79.40 442.80,54.40 429.60,47.00 422.40,50.00 409.00,79.00 403.80,74.00 389.20,30.20Z M154.20,31.00 141.80,28.00 127.20,36.20 87.60,86.00 58.60,58.00 46.40,57.00 31.00,64.40 22.80,88.60 14.00,163.00 24.00,186.80 25.00,206.00 36.40,221.60 55.00,214.00 64.60,190.00 62.80,128.20 67.60,122.80 93.40,146.80 106.00,143.20 118.00,118.60 125.40,117.00 137.20,172.00 145.80,179.80 167.60,173.40 171.80,134.80 162.80,53.40Z M194.20,24.00 188.20,29.80 186.00,30.00 184.00,34.20 180.20,38.60 179.00,42.00 179.00,45.40 181.00,48.20 181.00,49.60 179.20,50.60 180.20,54.00 183.00,54.40 185.00,58.00 183.20,59.80 187.20,62.60 192.80,61.80 194.20,62.80 198.60,63.40 201.80,62.60 204.60,63.80 206.80,62.60 206.80,60.60 212.80,54.60 214.60,55.40 215.80,54.60 217.20,51.60 216.00,47.00 217.80,46.40 218.40,44.80 217.80,38.60 213.80,34.20 213.80,30.40 208.60,26.80 205.00,26.00 202.20,24.20 195.60,25.00Z M588.60,7.20 575.00,2.00 546.00,7.00 539.00,5.00 514.00,12.00 499.80,12.00 489.20,20.20 489.20,33.60 518.00,44.00 516.00,70.00 508.40,92.00 508.00,123.40 505.00,126.00 508.00,140.40 512.20,145.60 525.00,145.80 525.60,148.20 534.60,142.00 541.60,117.20 549.80,54.40 554.80,45.00 568.20,38.80 586.40,35.80 594.00,29.40 596.00,16.80Z M263.00,1.80 240.60,7.80 235.00,16.40 233.60,30.60 235.80,47.00 232.40,70.40 235.00,72.80 238.00,99.40 236.00,123.40 239.20,137.60 237.00,142.20 240.00,153.40 245.00,159.60 257.60,163.60 273.00,159.80 284.20,151.40 285.60,153.60 301.00,140.20 316.80,113.20 323.80,83.00 323.80,64.00 317.80,49.00 318.80,42.20 312.80,30.40 300.20,29.80 299.80,16.40 290.60,9.20Z M270.20,50.80 273.20,50.80 276.20,53.60 281.20,55.20 283.80,60.20 286.20,63.00 288.20,63.80 290.00,67.80 290.00,70.40 288.40,71.60 291.00,72.40 292.00,80.00 290.80,82.20 291.20,85.20 290.20,86.40 290.00,89.60 288.00,93.20 288.00,98.40 281.40,107.80 272.80,112.20 269.40,111.20 269.20,101.00 267.00,99.80 267.80,92.60 267.80,75.40 266.60,72.80 266.80,66.00 268.40,64.20 267.80,54.60Z M482.80,0.00 470.00,0.00 470.00,6.40 472.40,7.80 473.40,9.40 472.60,14.40 470.00,17.20 470.00,27.00 470.60,27.40 472.00,26.20 474.60,22.60 475.60,23.80 476.40,23.80 477.80,22.40 477.80,21.40 478.80,20.40 479.80,15.60 481.80,12.20 483.80,4.80Z"/>
</svg>